<?xml version="1.0" standalone="no"?><!DOCTYPE svg PUBLIC "-//W3C//DTD SVG 1.1//EN" "http://www.w3.org/Graphics/SVG/1.1/DTD/svg11.dtd"><svg t="1777367221451" class="icon" viewBox="0 0 1024 1024" version="1.1" xmlns="http://www.w3.org/2000/svg" p-id="8813" xmlns:xlink="http://www.w3.org/1999/xlink" width="200" height="200"><path d="M512.4096 5.53472C791.58784 5.53472 1018.88 232.00256 1018.88 512s-227.29216 506.46528-506.4704 506.46528C232.41216 1018.46528 5.12 792.00256 5.12 512 5.12 232.00256 232.41216 5.53472 512.4096 5.53472z" fill="#F4A100" p-id="8814"></path><path d="M512 512m-499.70176 0a499.70176 499.70176 0 1 0 999.40352 0 499.70176 499.70176 0 1 0-999.40352 0Z" fill="#F4A400" p-id="8815"></path><path d="M512 512m-483.0464 0a483.0464 483.0464 0 1 0 966.0928 0 483.0464 483.0464 0 1 0-966.0928 0Z" fill="#F4A700" p-id="8816"></path><path d="M511.99488 512m-466.38592 0a466.38592 466.38592 0 1 0 932.77184 0 466.38592 466.38592 0 1 0-932.77184 0Z" fill="#F5A900" p-id="8817"></path><path d="M512 512m-449.72544 0a449.72544 449.72544 0 1 0 899.45088 0 449.72544 449.72544 0 1 0-899.45088 0Z" fill="#F5AC00" p-id="8818"></path><path d="M512 512m-433.0752 0a433.0752 433.0752 0 1 0 866.1504 0 433.0752 433.0752 0 1 0-866.1504 0Z" fill="#F5AF00" p-id="8819"></path><path d="M512 512m-416.41984 0a416.41984 416.41984 0 1 0 832.83968 0 416.41984 416.41984 0 1 0-832.83968 0Z" fill="#F6B100" p-id="8820"></path><path d="M512.00512 512m-399.75936 0a399.75936 399.75936 0 1 0 799.51872 0 399.75936 399.75936 0 1 0-799.51872 0Z" fill="#F6B400" p-id="8821"></path><path d="M512 512m-383.09888 0a383.09888 383.09888 0 1 0 766.19776 0 383.09888 383.09888 0 1 0-766.19776 0Z" fill="#F7B600" p-id="8822"></path><path d="M512 512m-366.44864 0a366.44864 366.44864 0 1 0 732.89728 0 366.44864 366.44864 0 1 0-732.89728 0Z" fill="#F7B900" p-id="8823"></path><path d="M512 512m-349.79328 0a349.79328 349.79328 0 1 0 699.58656 0 349.79328 349.79328 0 1 0-699.58656 0Z" fill="#F7BC00" p-id="8824"></path><path d="M511.99488 512m-333.1328 0a333.1328 333.1328 0 1 0 666.2656 0 333.1328 333.1328 0 1 0-666.2656 0Z" fill="#F8BE00" p-id="8825"></path><path d="M512 512m-316.47744 0a316.47744 316.47744 0 1 0 632.95488 0 316.47744 316.47744 0 1 0-632.95488 0Z" fill="#F8C100" p-id="8826"></path><path d="M512 512m-299.82208 0a299.82208 299.82208 0 1 0 599.64416 0 299.82208 299.82208 0 1 0-599.64416 0Z" fill="#F9C300" p-id="8827"></path><path d="M512 512m-283.16672 0a283.16672 283.16672 0 1 0 566.33344 0 283.16672 283.16672 0 1 0-566.33344 0Z" fill="#F9C600" p-id="8828"></path><path d="M512.00512 512m-266.50624 0a266.50624 266.50624 0 1 0 533.01248 0 266.50624 266.50624 0 1 0-533.01248 0Z" fill="#F9C900" p-id="8829"></path><path d="M512 512m-249.85088 0a249.85088 249.85088 0 1 0 499.70176 0 249.85088 249.85088 0 1 0-499.70176 0Z" fill="#FACB00" p-id="8830"></path><path d="M512 512m-233.19552 0a233.19552 233.19552 0 1 0 466.39104 0 233.19552 233.19552 0 1 0-466.39104 0Z" fill="#FACE00" p-id="8831"></path><path d="M512 512m-216.54016 0a216.54016 216.54016 0 1 0 433.08032 0 216.54016 216.54016 0 1 0-433.08032 0Z" fill="#FAD100" p-id="8832"></path><path d="M511.99488 512m-199.87968 0a199.87968 199.87968 0 1 0 399.75936 0 199.87968 199.87968 0 1 0-399.75936 0Z" fill="#FBD300" p-id="8833"></path><path d="M512 512m-183.2192 0a183.2192 183.2192 0 1 0 366.4384 0 183.2192 183.2192 0 1 0-366.4384 0Z" fill="#FBD600" p-id="8834"></path><path d="M512 512m-166.56384 0a166.56384 166.56384 0 1 0 333.12768 0 166.56384 166.56384 0 1 0-333.12768 0Z" fill="#FCD800" p-id="8835"></path><path d="M512 512m-149.9136 0a149.9136 149.9136 0 1 0 299.8272 0 149.9136 149.9136 0 1 0-299.8272 0Z" fill="#FCDB00" p-id="8836"></path><path d="M512.00512 512m-133.25312 0a133.25312 133.25312 0 1 0 266.50624 0 133.25312 133.25312 0 1 0-266.50624 0Z" fill="#FCDE00" p-id="8837"></path><path d="M512 512m-116.59264 0a116.59264 116.59264 0 1 0 233.18528 0 116.59264 116.59264 0 1 0-233.18528 0Z" fill="#FDE000" p-id="8838"></path><path d="M512 512m-99.9424 0a99.9424 99.9424 0 1 0 199.8848 0 99.9424 99.9424 0 1 0-199.8848 0Z" fill="#FDE300" p-id="8839"></path><path d="M512 512m-83.28704 0a83.28704 83.28704 0 1 0 166.57408 0 83.28704 83.28704 0 1 0-166.57408 0Z" fill="#FDE600" p-id="8840"></path><path d="M511.99488 512m-66.62656 0a66.62656 66.62656 0 1 0 133.25312 0 66.62656 66.62656 0 1 0-133.25312 0Z" fill="#FEE800" p-id="8841"></path><path d="M512 512m-49.9712 0a49.9712 49.9712 0 1 0 99.9424 0 49.9712 49.9712 0 1 0-99.9424 0Z" fill="#FEEB00" p-id="8842"></path><path d="M512 512m-33.31584 0a33.31584 33.31584 0 1 0 66.63168 0 33.31584 33.31584 0 1 0-66.63168 0Z" fill="#FFED00" p-id="8843"></path><path d="M512 512m-16.66048 0a16.66048 16.66048 0 1 0 33.32096 0 16.66048 16.66048 0 1 0-33.32096 0Z" fill="#FFF000" p-id="8844"></path><path d="M225.39776 575.4112a629.82144 629.82144 0 0 1 123.68896-197.05344C317.44 403.80928 277.9136 419.8656 234.88 422.23616h-10.70592a197.0688 197.0688 0 0 1-24.15104-1.5104 721.12128 721.12128 0 0 0-69.89824 144.14848 359.1936 359.1936 0 0 0 86.63552 10.54208l8.63744-0.00512zM380.84608 346.35776c55.45472-52.0704 120.29952-94.18752 191.64672-123.50464 0.01024-1.07008 0.03584-2.13504 0.03584-3.20512 0-31.86176-4.16256-62.67392-11.92448-91.97568a716.86144 716.86144 0 0 0-138.96704 69.42208c1.19296 8.7296 1.83808 17.62816 1.83808 26.67008-0.00512 46.30528-15.96928 88.84224-42.62912 122.59328z" fill="#FFE793" p-id="8845"></path><path d="M789.11488 591.05792c-75.76064 0-141.6448 43.64288-174.58688 107.05408-13.17376 26.35264-20.58752 56.00256-20.58752 88.12032 0 31.29344 7.41376 60.93824 20.58752 88.1152 23.06048 44.4672 63.4112 79.88224 112 96.34816 22.23616-10.7008 44.47232-23.05536 65.05984-37.05856 79.0528-51.88096 141.6448-125.99808 181.99552-212.46976-27.18208-74.94656-98.00192-129.29536-181.99552-130.11968-0.82432 0.01024-1.64864 0.01024-2.47296 0.01024z m107.88352 200.94464c0 57.64608-46.94528 105.41056-104.59136 105.41056h-0.8192c-57.6512-0.82432-104.59136-47.76448-104.59136-105.41056s46.94016-104.59136 104.59136-105.41056h0.8192c57.64608-0.00512 104.59136 47.75936 104.59136 105.41056z" fill="#FCD88D" p-id="8846"></path><path d="M1018.62912 496.61952c-0.03072-0.92672-0.0768-1.8432-0.10752-2.76992a464.83968 464.83968 0 0 0-0.70144-14.18752l-0.02048-0.384a494.12096 494.12096 0 0 0-15.39072-94.10048c-61.76256-31.29856-132.58752-49.41312-207.52896-49.41312h-3.29216a470.9888 470.9888 0 0 0-133.83168 21.22752c-45.09696 143.6672-158.93504 257.45408-302.848 302.44352a460.11904 460.11904 0 0 0-21.20192 138.32704c0 72.46848 17.29024 141.64992 47.75936 203.41248a477.33248 477.33248 0 0 0 49.76128 10.80832c3.49696 0.56832 7.00416 1.0752 10.5216 1.57184 1.83808 0.256 3.66592 0.53248 5.50912 0.768a500.9408 500.9408 0 0 0 13.36832 1.54112c2.3552 0.23552 4.72576 0.42496 7.08608 0.62976 2.64192 0.22528 5.28384 0.45568 7.936 0.64512a490.19904 490.19904 0 0 0 16.0256 0.87552c1.87904 0.0768 3.75808 0.15872 5.64736 0.21504 5.01248 0.13824 10.03008 0.24064 15.08352 0.24064 1.09056 0 2.176-0.03584 3.26656-0.04096-47.74912-60.93312-76.55424-137.50272-76.55424-220.66688 0-130.11968 70.82496-244.58752 175.4112-307.1744 52.70528-30.46912 112.8192-48.5888 177.05984-48.5888h3.29216c84.77184 0 162.14016 29.61408 223.89248 78.96576 0.04608-2.98496 0.10752-5.96992 0.10752-8.96512 0-5.13536-0.09728-10.2656-0.25088-15.38048z" fill="#FDDE8F" p-id="8847"></path><path d="M89.12384 790.35392c28.00128 41.99936 61.76256 79.88224 100.46976 112a646.90688 646.90688 0 0 1-7.40864-97.9968c0-42.48064 4.25984-83.97312 12.33408-124.09856a455.49056 455.49056 0 0 1-92.1088-13.85984 721.48992 721.48992 0 0 0-13.2864 123.9552zM791.58784 176.00512h18.11456c29.6448 0 58.4704 2.46784 86.46656 5.76-30.464-35.41504-65.87904-65.88416-104.58112-92.2368-3.3024-1.64864-6.58944-4.1216-9.89184-5.76512-40.67328 1.16224-80.53248 6.43584-119.29088 14.64832a453.9392 453.9392 0 0 1 15.40096 91.904 668.8512 668.8512 0 0 1 113.78176-14.3104z" fill="#FFE793" p-id="8848"></path><path d="M677.8112 190.32064c-21.51424 4.62336-42.61888 10.2912-63.27808 16.9728-14.24384 4.6848-28.2624 9.89696-42.04032 15.55968-1.67424 188.76928-150.90176 342.72768-337.60256 352.55296h-9.48736a622.26432 622.26432 0 0 0-30.88384 104.84736c7.3728 0.35328 14.78656 0.56832 22.25152 0.56832 6.58944 0 12.34944 0 18.11968-0.82432a458.17856 458.17856 0 0 0 120.02816-20.56704c40.65792-129.16224 136.57088-234.3168 259.61984-286.61248a464.50688 464.50688 0 0 1 43.22816-15.83616 457.7792 457.7792 0 0 0 21.00736-137.33888 475.31008 475.31008 0 0 0-0.96256-29.32224z" fill="#FFE994" p-id="8849"></path><path d="M102.40512 666.39872a716.1088 716.1088 0 0 1 27.7248-101.5296c-45.68064-11.34592-87.80288-31.47264-124.1856-58.63424 0 1.64864-0.82432 3.29728-0.82432 5.76512 0 5.21728 0.09216 10.41408 0.26112 15.60576l0.04096 1.13664a489.6768 489.6768 0 0 0 16.16896 108.43136 455.35232 455.35232 0 0 0 80.81408 29.22496z" fill="#FCD78D" p-id="8850"></path><path d="M614.528 110.12096a801.1264 801.1264 0 0 1 47.88224-11.70432 458.62912 458.62912 0 0 0-29.5424-78.40256 504.32512 504.32512 0 0 0-66.42688-11.60192c-1.37216-0.13824-2.73408-0.29184-4.10624-0.42496a508.0064 508.0064 0 0 0-15.26784-1.24928c-2.06848-0.13824-4.13696-0.27648-6.20544-0.39424-3.10784-0.17408-6.23104-0.30208-9.34912-0.41984-1.59232-0.06144-3.1744-0.13824-4.77696-0.1792-4.76672-0.13312-9.54368-0.21504-14.336-0.21504-3.81952 0-7.62368 0.06144-11.42272 0.14336a347.21792 347.21792 0 0 1 59.61216 121.99936 714.56256 714.56256 0 0 1 53.9392-17.55136z" fill="#FCD68D" p-id="8851"></path><path d="M218.41408 116.7104c5.76 0 11.52512 0.82432 16.47104 1.64352 51.05664 8.23296 90.58816 51.88096 90.58816 105.41056 0 53.53472-39.53152 98.00192-90.58816 106.24-4.94592 0.82432-10.70592 0.82432-16.47104 0.82432-58.4704 0-107.06432-47.76448-107.06432-107.0592 0-9.05728 1.64864-17.29024 3.3024-25.52832-27.17696 34.59072-50.23744 72.4736-67.52768 113.64864 28.7232 58.1888 85.79072 100.54144 152.90368 108.83584a727.6544 727.6544 0 0 1 221.60896-223.62624c-9.02656-65.94048-50.93376-121.94816-108.26752-151.08096a479.2832 479.2832 0 0 0-6.62528 2.8928c-24.1152 11.24352-47.53408 23.77216-69.65248 37.63712-1.55648 1.00864-3.0976 2.02752-4.64896 3.05152-14.64832 10.1376-27.99616 20.31104-42.02496 31.232 9.05728-2.47808 18.93888-4.1216 27.99616-4.1216z" fill="#FDDA8E" p-id="8852"></path><path d="M572.48768 222.85312a621.0816 621.0816 0 0 1 42.04032-15.55968 646.5024 646.5024 0 0 1 63.27808-16.9728 453.9392 453.9392 0 0 0-15.40096-91.904 803.06176 803.06176 0 0 0-47.88224 11.70432 710.54336 710.54336 0 0 0-53.92896 17.55648 358.44096 358.44096 0 0 1 11.92448 91.97568c0.00512 1.06496-0.02048 2.12992-0.03072 3.2z" fill="#FFF0CB" p-id="8853"></path><path d="M354.91328 659.43552c143.90784-44.98944 257.75104-158.77632 302.848-302.44352a462.5152 462.5152 0 0 0-43.22816 15.83616c-123.04896 52.29056-218.96192 157.44512-259.61984 286.60736zM234.88512 422.23616c43.0336-2.37056 82.56-18.42688 114.20672-43.8784a636.66176 636.66176 0 0 1 31.75424-32c26.65984-33.75104 42.62912-76.288 42.62912-122.59328 0-9.04192-0.64512-17.94048-1.83808-26.67008a727.71072 727.71072 0 0 0-221.60896 223.62624 197.0688 197.0688 0 0 0 24.15104 1.5104l10.70592 0.00512z" fill="#FFF5CE" p-id="8854"></path><path d="M216.76544 575.4112a359.1936 359.1936 0 0 1-86.63552-10.54208 715.91936 715.91936 0 0 0-27.7248 101.5296 455.49056 455.49056 0 0 0 92.1088 13.85984 623.02208 623.02208 0 0 1 30.88384-104.84736h-8.63232z" fill="#FFF0CB" p-id="8855"></path></svg>