<?xml version="1.0" standalone="no"?><!DOCTYPE svg PUBLIC "-//W3C//DTD SVG 1.1//EN" "http://www.w3.org/Graphics/SVG/1.1/DTD/svg11.dtd"><svg t="1777367392528" class="icon" viewBox="0 0 1024 1024" version="1.1" xmlns="http://www.w3.org/2000/svg" p-id="12868" xmlns:xlink="http://www.w3.org/1999/xlink" width="200" height="200"><path d="M989.09 368.873v426.984a73.96 73.96 0 0 1-73.96 73.961H108.87a73.96 73.96 0 0 1-73.96-73.96V368.872h954.18zM887.856 547.258H687.174c-10.24 0-19.247 6.563-22.528 16.058l-0.768 2.677-26.229 119.272a23.855 23.855 0 0 0 20.713 28.859l2.583 0.116h200.681c10.24 0 19.247-6.54 22.528-16.058l0.768-2.677 26.229-119.272a23.855 23.855 0 0 0-23.296-28.975zM761.11 595.48l-13.73 71.587h-20.69l13.73-71.587h20.714z m65.56 0l-13.731 71.587h-20.713l13.73-71.587h20.714z m88.436-441.297a73.96 73.96 0 0 1 73.984 73.96v45.313H34.909v-45.312a73.96 73.96 0 0 1 73.96-73.961H915.13z" fill="#707EFF" p-id="12869"></path></svg>