<?xml version="1.0" standalone="no"?><!DOCTYPE svg PUBLIC "-//W3C//DTD SVG 1.1//EN" "http://www.w3.org/Graphics/SVG/1.1/DTD/svg11.dtd"><svg t="1777367683667" class="icon" viewBox="0 0 1028 1024" version="1.1" xmlns="http://www.w3.org/2000/svg" p-id="16969" xmlns:xlink="http://www.w3.org/1999/xlink" width="200.78125" height="200"><path d="M508.039084 385.947585c-4.476766 4.788299-6.442052 10.308901-6.076911 16.448524 0.432909 6.010154 2.517549 13.374667 6.631197 21.844716l41.363051-34.243314c-9.146722-7.240102-17.366938-10.919829-24.365299-11.289016C518.719195 378.338297 512.766694 380.793135 508.039084 385.947585z" fill="#409EFF" p-id="16970"></path><path d="M506.816217 127.276293c-217.746208 0-394.360992 176.614784-394.360992 394.42168 0 217.686531 176.614784 394.302327 394.360992 394.302327 217.747219 0 394.363015-176.614784 394.363015-394.302327C901.17822 303.891077 724.563436 127.276293 506.816217 127.276293zM648.837718 490.127975l0 47.35601L538.390261 537.483984l0 47.360056 110.447457 0 0 47.237668L538.390261 632.081708l0 94.722134-63.151124 0c0-9.373292 0-48.71846 0-94.722134L364.799772 632.081708l0-47.237668 110.439365 0c0-16.276574 0-32.433794 0-47.360056L364.799772 537.483984l0-47.35601 110.439365 0L301.64966 316.47174l94.723146 0 110.443411 110.506122L617.263674 316.47174l94.720111 0L538.390261 490.127975 648.837718 490.127975z" fill="#409EFF" p-id="16971"></path><path d="M506.816217 16.52135c-278.981608 0-505.175613 226.192993-505.175613 505.176624 0 278.984642 226.194005 505.179658 505.175613 505.179658 278.982619 0 505.179658-226.195016 505.179658-505.179658C1011.995875 242.715354 785.798836 16.52135 506.816217 16.52135zM506.816217 979.271789c-252.771388 0-457.633492-204.862104-457.633492-457.573816 0-252.835111 204.863116-457.690135 457.633492-457.690135 252.7724 0 457.634504 204.855024 457.634504 457.690135C964.45072 774.409685 759.588616 979.271789 506.816217 979.271789z" fill="#409EFF" p-id="16972"></path></svg>