<?xml version="1.0" standalone="no"?><!DOCTYPE svg PUBLIC "-//W3C//DTD SVG 1.1//EN" "http://www.w3.org/Graphics/SVG/1.1/DTD/svg11.dtd"><svg t="1777368415403" class="icon" viewBox="0 0 1024 1024" version="1.1" xmlns="http://www.w3.org/2000/svg" p-id="18016" xmlns:xlink="http://www.w3.org/1999/xlink" width="200" height="200"><path d="M0 0m163.84 0l696.32 0q163.84 0 163.84 163.84l0 696.32q0 163.84-163.84 163.84l-696.32 0q-163.84 0-163.84-163.84l0-696.32q0-163.84 163.84-163.84Z" fill="#35DBA8" fill-opacity=".12" p-id="18017"></path><path d="M401.664 153.6H218.0096A64.1536 64.1536 0 0 0 153.6 218.112v183.6032a64.1536 64.1536 0 0 0 64.4096 64.4608h183.6544a64.4096 64.4096 0 0 0 64.4608-64.4608V218.112a64.4096 64.4096 0 0 0-64.4608-64.4096z m0 404.3776H218.0096A64.0512 64.0512 0 0 0 153.6 622.3872v183.6032A64.1536 64.1536 0 0 0 218.0096 870.4h183.6544a64.4096 64.4096 0 0 0 64.4608-64.4096v-183.7056a64.4096 64.4096 0 0 0-64.4608-64.3072z m310.9888-89.344A157.5424 157.5424 0 1 0 713.0624 153.6a157.5424 157.5424 0 0 0-0.4096 315.0848z m0-259.8912a102.8096 102.8096 0 0 1 102.5536 102.2464 102.4 102.4 0 1 1-102.5536-102.2464z m93.2864 349.184h-183.6544a64 64 0 0 0-59.5968 39.7824 64.256 64.256 0 0 0-4.864 24.6784v183.6032A64.1536 64.1536 0 0 0 622.2848 870.4h183.6544a64.4096 64.4096 0 0 0 64.4096-64.4096v-183.7056a64.4096 64.4096 0 0 0-64.4096-64.3072z" fill="#59E1B7" p-id="18018"></path></svg>